<svg width="14" height="14" viewBox="0 0 14 14" fill="none" xmlns="http://www.w3.org/2000/svg">
<g id="github">
<path id="Vector" d="M7.38815 1.61861C6.68707 1.61861 5.99285 1.75669 5.34514 2.02499C4.69742 2.29328 4.10889 2.68652 3.61315 3.18226C2.61196 4.18345 2.0495 5.54136 2.0495 6.95726C2.0495 9.31694 3.58169 11.3189 5.70114 12.029C5.96807 12.0717 6.05349 11.9062 6.05349 11.762C6.05349 11.6393 6.05349 11.3029 6.05349 10.8598C4.57468 11.1801 4.2597 10.1444 4.2597 10.1444C4.01412 9.52515 3.66711 9.35965 3.66711 9.35965C3.18129 9.02866 3.70448 9.03933 3.70448 9.03933C4.23835 9.0767 4.5213 9.58922 4.5213 9.58922C4.98576 10.4007 5.77054 10.1605 6.07484 10.0323C6.12289 9.68531 6.2617 9.45041 6.41118 9.31694C5.226 9.18348 3.98209 8.72435 3.98209 6.69033C3.98209 6.09774 4.18496 5.6226 4.53197 5.24355C4.47859 5.11009 4.29173 4.55487 4.58536 3.83415C4.58536 3.83415 5.03381 3.69 6.05349 4.37869C6.47524 4.26124 6.93437 4.20251 7.38815 4.20251C7.84194 4.20251 8.30106 4.26124 8.72282 4.37869C9.7425 3.69 10.1909 3.83415 10.1909 3.83415C10.4846 4.55487 10.2977 5.11009 10.2443 5.24355C10.5913 5.6226 10.7942 6.09774 10.7942 6.69033C10.7942 8.72969 9.54497 9.17814 8.35445 9.3116C8.54664 9.4771 8.72282 9.80276 8.72282 10.2993C8.72282 11.0146 8.72282 11.5912 8.72282 11.762C8.72282 11.9062 8.80823 12.077 9.08051 12.029C11.2 11.3136 12.7268 9.31694 12.7268 6.95726C12.7268 6.25618 12.5887 5.56196 12.3204 4.91425C12.0521 4.26653 11.6589 3.678 11.1631 3.18226C10.6674 2.68652 10.0789 2.29328 9.43117 2.02499C8.78345 1.75669 8.08923 1.61861 7.38815 1.61861Z" fill="#DDDDDD"/>
</g>
</svg>
