<svg width="14" height="14" viewBox="0 0 14 14" fill="none" xmlns="http://www.w3.org/2000/svg">
<g id="linkedin">
<path id="Vector" d="M10.177 2.15248C10.4602 2.15248 10.7317 2.26497 10.932 2.46521C11.1322 2.66545 11.2447 2.93703 11.2447 3.22021V10.6943C11.2447 10.9775 11.1322 11.2491 10.932 11.4493C10.7317 11.6496 10.4602 11.7621 10.177 11.7621H2.70286C2.41968 11.7621 2.1481 11.6496 1.94786 11.4493C1.74762 11.2491 1.63513 10.9775 1.63513 10.6943V3.22021C1.63513 2.93703 1.74762 2.66545 1.94786 2.46521C2.1481 2.26497 2.41968 2.15248 2.70286 2.15248H10.177ZM9.91004 10.4274V7.59791C9.91004 7.13632 9.72668 6.69365 9.40029 6.36726C9.0739 6.04087 8.63123 5.85751 8.16964 5.85751C7.71586 5.85751 7.18733 6.13512 6.93107 6.55153V5.95894H5.44159V10.4274H6.93107V7.79544C6.93107 7.38436 7.26207 7.04803 7.67315 7.04803C7.87137 7.04803 8.06148 7.12677 8.20165 7.26694C8.34181 7.4071 8.42056 7.59721 8.42056 7.79544V10.4274H9.91004ZM3.70653 5.12077C3.9444 5.12077 4.17253 5.02628 4.34073 4.85808C4.50893 4.68988 4.60342 4.46175 4.60342 4.22388C4.60342 3.72738 4.20302 3.32165 3.70653 3.32165C3.46724 3.32165 3.23776 3.4167 3.06855 3.5859C2.89935 3.7551 2.8043 3.98459 2.8043 4.22388C2.8043 4.72037 3.21003 5.12077 3.70653 5.12077ZM4.4486 10.4274V5.95894H2.96979V10.4274H4.4486Z" fill="#DDDDDD"/>
</g>
</svg>
